<svg xmlns="http://www.w3.org/2000/svg" viewBox="0 0 207.974 130.78348" preserveAspectRatio="xMinYMin meet"><g id="Layer_2" data-name="Layer 2"><g id="Layer_1-2" data-name="Layer 1"><path d="M207.974,64.39539q-18.26725,18.065-36.52661,36.13787c-7.20535,7.15968-14.33232,14.39839-21.14312,21.24814L122.07449,93.57581l29.867-29.423L121.80224,34.88446c9.68149-9.74528,18.8073-18.93122,28.28339-28.46977.99169.9489,2.30112,2.15507,3.55921,3.41271q25.09442,25.08582,50.1928,50.16761c1.258,1.25459,2.752,2.27206,4.13636,3.39977Z"/><path d="M0,64.39539c6.43381-6.16864,12.88436-12.32,19.28754-18.52027,1.30819-1.26674,2.43857-2.71738,3.24531-3.6263l23.20244,23.332L22.237,89.05268,0,65.396Z"/><path d="M33.50165,31.70549,65.37333,0l65.48889,65.568C109.545,86.86461,87.55489,108.83337,65.58346,130.78348L34.32224,99.62716c11.351-11.035,22.76645-22.13274,34.11307-33.16351C56.21121,54.301,44.822,42.969,33.50165,31.70549Z"/></g></g></svg>
