<svg xmlns="http://www.w3.org/2000/svg" viewBox="0 0 272.33543 130.72894" preserveAspectRatio="xMinYMin meet"><g id="Layer_2" data-name="Layer 2"><g id="Layer_1-2" data-name="Layer 1"><path d="M33.2632,98.92385q16.68969-16.55456,33.889-33.61464L33.3095,31.51409Q49.60865,15.26851,64.92753,0L130.343,65.4343c-21.547,21.54956-43.542,43.5471-65.287,65.29464C54.8156,120.48462,44.38182,110.0468,33.2632,98.92385Z"/><path d="M149.56709,6.86278c19.17187,19.173,38.34025,38.35125,57.11026,57.13093-19.0541,19.0529-38.32488,38.32243-57.41917,57.4155l-27.0234-26.94988L152.02872,65.6645,121.42958,35.04678C131.27938,25.18133,140.42148,16.02469,149.56709,6.86278Z"/><path d="M227.36084,18.64347l44.97459,45.00807C257.402,78.57817,242.042,93.93122,227.099,108.86742c-6.29728-6.39194-13.58337-13.78753-21.19667-21.51524,7.05119-6.975,15.03643-14.874,22.94623-22.69833L205.51946,40.49572Z"/><path d="M45.36028,65.24211,22.70365,87.87022,0,65.12125,22.73289,42.40753Z"/></g></g></svg>
