<svg xmlns="http://www.w3.org/2000/svg" viewBox="0 0 132.07001 107.3776" preserveAspectRatio="xMinYMin meet"><g id="Layer_2" data-name="Layer 2"><g id="Layer_1-2" data-name="Layer 1"><path d="M0,30.9673C10.16538,15.1176,25.05744,6.29945,43.10944,2.54784,69.242-2.88309,94.18441-.23847,115.93,16.40058c22.30679,17.06846,21.24489,43.822-1.65768,60.23653C101.49678,85.79348,87.06,90.00934,70.55584,91.29163l11.36173,16.086L18.9263,94.13134,75.17722,60.4212c-2.26414,8.93029-4.29888,16.95578-6.53593,25.7792,13.10865-4.39556,23.68262-10.66575,29.70624-22.67571,5.9676-11.89829,1.497-25.96763-10.992-35.33392C75.49137,19.29306,61.79,15.75569,47.26886,15.62827,32.2202,15.49621,18.039,19.00059,5.722,28.21955,3.74036,29.70277,1.90369,31.37968,0,32.96705Z"/></g></g></svg>
